<?xml version="1.0" encoding="UTF-8" standalone="no"?>
<svg width="128px" height="28px" viewBox="0 0 128 28" version="1.1" xmlns="http://www.w3.org/2000/svg" xmlns:xlink="http://www.w3.org/1999/xlink">
    <!-- Generator: Sketch 41 (35326) - http://www.bohemiancoding.com/sketch -->
    <title>mammut</title>
    <desc>Created with Sketch.</desc>
    <defs></defs>
    <g id="Page-1" stroke="none" stroke-width="1" fill="none" fill-rule="evenodd">
        <g id="iconfont字体大小表" transform="translate(-77.000000, -37.000000)" fill="#ffffff">
            <path d="M202.458,58.884 C202.103,58.83 201.791,58.725 201.521,58.569 C201.251,58.413 201.038,58.19 200.882,57.901 C200.726,57.613 200.647,57.235 200.647,56.766 L200.647,51.266 L199.1,51.266 L199.1,49.553 L200.647,49.553 L200.647,46.759 L203.205,46.759 L203.205,49.553 L205.078,49.553 L205.078,51.266 L203.205,51.266 L203.205,55.882 C203.205,56.315 203.277,56.603 203.421,56.748 C203.564,56.892 203.854,56.964 204.285,56.964 C204.429,56.964 204.567,56.958 204.7,56.946 C204.831,56.934 204.958,56.916 205.078,56.892 L205.078,58.875 C204.862,58.911 204.621,58.935 204.358,58.948 C204.093,58.959 203.835,58.965 203.583,58.965 C203.187,58.965 202.812,58.938 202.458,58.884 Z M195.534,57.577 C195.21,58.118 194.79,58.508 194.274,58.749 C193.757,58.99 193.229,59.11 192.689,59.11 C192.005,59.11 191.443,59.02 191.005,58.839 C190.568,58.659 190.222,58.404 189.97,58.073 C189.718,57.742 189.541,57.339 189.438,56.865 C189.337,56.39 189.286,55.864 189.286,55.287 L189.286,49.553 L191.843,49.553 L191.843,54.818 C191.843,55.587 191.963,56.162 192.203,56.54 C192.443,56.919 192.869,57.108 193.481,57.108 C194.177,57.108 194.682,56.901 194.994,56.486 C195.306,56.072 195.462,55.389 195.462,54.44 L195.462,49.553 L198.02,49.553 L198.02,58.875 L195.588,58.875 L195.588,57.577 L195.534,57.577 Z M184.677,52.708 C184.653,52.432 184.586,52.192 184.478,51.987 C184.37,51.783 184.211,51.62 184.001,51.5 C183.791,51.38 183.506,51.32 183.145,51.32 C182.786,51.32 182.494,51.389 182.272,51.527 C182.051,51.665 181.876,51.846 181.75,52.069 C181.624,52.291 181.54,52.543 181.498,52.826 C181.456,53.108 181.436,53.394 181.436,53.682 L181.436,58.875 L178.878,58.875 L178.878,53.646 C178.878,53.37 178.872,53.096 178.86,52.826 C178.849,52.555 178.797,52.306 178.707,52.077 C178.617,51.849 178.468,51.665 178.257,51.527 C178.047,51.389 177.738,51.32 177.33,51.32 C177.209,51.32 177.051,51.347 176.852,51.401 C176.655,51.455 176.462,51.557 176.277,51.708 C176.09,51.858 175.932,52.074 175.799,52.357 C175.667,52.639 175.602,53.009 175.602,53.466 L175.602,58.875 L173.044,58.875 L173.044,49.553 L175.457,49.553 L175.457,50.815 C175.829,50.335 176.235,49.962 176.708,49.697 C177.182,49.433 177.725,49.301 178.338,49.301 C178.927,49.301 179.463,49.415 179.95,49.643 C180.435,49.871 180.805,50.274 181.057,50.851 C181.333,50.443 181.708,50.082 182.182,49.77 C182.657,49.457 183.217,49.301 183.866,49.301 C184.358,49.301 184.814,49.361 185.234,49.481 C185.655,49.601 186.015,49.794 186.314,50.058 C186.615,50.322 186.85,50.668 187.018,51.095 C187.186,51.522 187.27,52.035 187.27,52.636 L187.27,58.875 L184.712,58.875 L184.712,53.592 C184.712,53.28 184.7,52.985 184.677,52.708 Z M168.363,52.708 C168.339,52.432 168.273,52.192 168.164,51.987 C168.056,51.783 167.898,51.62 167.688,51.5 C167.478,51.38 167.192,51.32 166.832,51.32 C166.471,51.32 166.18,51.389 165.958,51.527 C165.737,51.665 165.563,51.846 165.437,52.069 C165.311,52.291 165.227,52.543 165.184,52.826 C165.143,53.108 165.121,53.394 165.121,53.682 L165.121,58.875 L162.565,58.875 L162.565,53.646 C162.565,53.37 162.558,53.096 162.546,52.826 C162.534,52.555 162.484,52.306 162.394,52.077 C162.304,51.849 162.153,51.665 161.943,51.527 C161.733,51.389 161.425,51.32 161.016,51.32 C160.896,51.32 160.737,51.347 160.539,51.401 C160.34,51.455 160.149,51.557 159.963,51.708 C159.777,51.858 159.617,52.074 159.486,52.357 C159.354,52.639 159.287,53.009 159.287,53.466 L159.287,58.875 L156.731,58.875 L156.731,49.553 L159.144,49.553 L159.144,50.815 C159.516,50.335 159.92,49.962 160.395,49.697 C160.869,49.433 161.412,49.301 162.024,49.301 C162.613,49.301 163.15,49.415 163.636,49.643 C164.122,49.871 164.491,50.274 164.743,50.851 C165.02,50.443 165.395,50.082 165.869,49.77 C166.342,49.457 166.904,49.301 167.552,49.301 C168.044,49.301 168.5,49.361 168.921,49.481 C169.341,49.601 169.701,49.794 170.001,50.058 C170.301,50.322 170.535,50.668 170.703,51.095 C170.871,51.522 170.955,52.035 170.955,52.636 L170.955,58.875 L168.399,58.875 L168.399,53.592 C168.399,53.28 168.386,52.985 168.363,52.708 Z M152.229,57.974 C151.821,58.394 151.341,58.689 150.789,58.857 C150.236,59.025 149.672,59.11 149.096,59.11 C148.652,59.11 148.237,59.056 147.853,58.948 C147.469,58.839 147.133,58.671 146.845,58.442 C146.557,58.214 146.332,57.925 146.17,57.577 C146.008,57.228 145.927,56.814 145.927,56.333 C145.927,55.804 146.02,55.368 146.206,55.026 C146.392,54.683 146.632,54.41 146.926,54.205 C147.22,54.001 147.557,53.848 147.935,53.745 C148.313,53.643 148.694,53.562 149.078,53.502 C149.462,53.442 149.84,53.394 150.212,53.358 C150.584,53.322 150.915,53.267 151.202,53.196 C151.491,53.123 151.719,53.018 151.887,52.88 C152.055,52.742 152.133,52.54 152.121,52.276 C152.121,51.999 152.076,51.78 151.986,51.618 C151.896,51.455 151.776,51.329 151.626,51.239 C151.476,51.149 151.301,51.089 151.104,51.059 C150.905,51.029 150.692,51.014 150.464,51.014 C149.96,51.014 149.564,51.122 149.276,51.338 C148.988,51.554 148.82,51.915 148.772,52.42 L146.215,52.42 C146.251,51.819 146.401,51.32 146.665,50.923 C146.929,50.527 147.265,50.208 147.673,49.968 C148.082,49.728 148.541,49.556 149.051,49.454 C149.561,49.352 150.074,49.301 150.59,49.301 C151.059,49.301 151.533,49.334 152.013,49.4 C152.493,49.466 152.931,49.595 153.327,49.787 C153.723,49.98 154.047,50.247 154.299,50.59 C154.551,50.933 154.678,51.386 154.678,51.951 L154.678,56.802 C154.678,57.223 154.702,57.625 154.75,58.009 C154.797,58.394 154.881,58.683 155.002,58.875 L152.409,58.875 C152.361,58.731 152.322,58.584 152.292,58.434 C152.262,58.283 152.241,58.13 152.229,57.974 Z M151.716,54.539 C151.554,54.593 151.38,54.638 151.194,54.674 C151.007,54.71 150.812,54.74 150.608,54.764 C150.404,54.788 150.2,54.818 149.996,54.854 C149.804,54.89 149.615,54.938 149.429,54.998 C149.243,55.059 149.081,55.14 148.943,55.242 C148.804,55.344 148.694,55.473 148.61,55.629 C148.526,55.786 148.484,55.985 148.484,56.225 C148.484,56.453 148.526,56.645 148.61,56.802 C148.694,56.958 148.808,57.081 148.952,57.171 C149.096,57.262 149.264,57.325 149.456,57.361 C149.648,57.397 149.846,57.415 150.05,57.415 C150.554,57.415 150.944,57.331 151.22,57.162 C151.496,56.994 151.701,56.793 151.833,56.558 C151.965,56.324 152.046,56.086 152.076,55.846 C152.106,55.605 152.121,55.413 152.121,55.269 L152.121,54.314 C152.013,54.41 151.878,54.485 151.716,54.539 Z M138.274,58.875 L136.095,58.875 L132.944,49.841 L132.908,58.875 L130.261,58.875 L130.261,46.001 L134.24,46.001 L137.248,54.854 L140.129,46.001 L144.108,46.001 L144.108,58.875 L141.461,58.875 L141.461,49.751 L138.274,58.875 Z M110.081,53.835 C109.768,53.706 109.489,53.567 109.25,53.429 C109.109,53.348 109.015,53.287 108.972,53.256 C106.534,51.546 106.188,48.945 106.188,48.945 C106.188,48.945 106.61,52.331 104.496,54.447 C106.188,58.68 106.742,64.181 105.764,64.181 L101.184,64.181 C101.184,64.181 102.315,58.025 100.322,57.836 C100.167,57.815 100.006,57.881 99.914,58.021 C99.848,58.12 99.639,58.308 99.23,58.512 C98.499,58.878 97.453,59.102 96.035,59.102 C95.811,59.102 95.25,59.14 92.8,58.801 C90.052,58.055 87.998,56.563 87.998,56.563 C87.998,56.563 87.573,58.149 88.081,59.872 C88.715,62.025 89.267,64.181 88.421,64.181 L84.192,64.181 C84.192,64.181 84.585,61.669 84.342,60.69 C84.372,60.462 83.804,59.83 83.664,59.67 C82.536,58.38 81.835,57.071 81.476,55.794 C81.296,55.154 81.292,54.571 80.816,53.584 C79.811,51.392 80.808,47.675 80.808,47.675 C80.808,47.675 80.349,47.675 79.961,48.522 C79.574,49.368 79.292,52.967 79.292,52.967 C79.292,52.967 79.749,53.184 79.43,54.368 C79.195,55.24 78.522,55.566 78.522,55.566 C78.522,55.566 78.966,48.611 79.538,47.675 C80.808,45.6 84.614,41.75 89.267,41.75 C90.539,41.75 90.977,40.129 93.938,39.282 C96.899,38.436 99.082,39.948 100.265,39.634 C102.547,39.03 101.878,37.149 104.869,37.372 C107.859,37.595 108.333,40.452 108.333,40.452 C108.333,40.452 110.183,41.705 111.686,44.713 C112.974,47.289 113.456,50.381 113.613,51.712 C111.171,51.871 109.371,49 109.371,49 C109.371,49 110.377,52.458 113.647,52.371 C113.679,52.375 115.504,52.36 117.334,51.145 C118.431,50.416 118.174,49.336 116.986,47.879 C120.734,50.45 118.611,52.789 116.064,53.824 C115.75,53.913 115.454,54.013 115.36,54.045 C113.483,54.671 111.686,54.501 110.081,53.835 Z M80.661,56.023 C80.999,57.224 81.61,58.445 82.544,59.643 C83,60.978 82.474,64.181 81.653,64.181 L77,64.181 C77,63.735 77.424,62.065 79.538,59.102 C79.538,57.862 79.948,55.546 80.366,54.342 C80.381,54.81 80.468,55.334 80.661,56.023 Z M100.432,58.71 C100.539,59.102 100.657,59.562 100.688,59.948 C100.859,62.065 99.155,63.599 98.573,63.334 C97.113,62.669 95.189,61.218 95.189,61.218 C95.189,61.218 95.916,60.533 96.495,59.941 C97.815,59.896 98.841,59.653 99.609,59.269 C99.984,59.081 100.253,58.885 100.432,58.71 Z M118.877,59.525 C117.269,60.685 118.727,61.369 118.031,62.065 C110.955,58.987 110.116,56.139 109.933,54.687 C111.135,55.144 112.691,55.338 113.994,55.225 C114.227,56.506 115.364,59.188 118.877,59.525 Z" id="mammut"></path>
        </g>
    </g>
</svg>